<svg width="64" height="64" viewBox="0 0 64 64" fill="none" xmlns="http://www.w3.org/2000/svg">
<g clip-path="url(#clip0_313_76)">
<path d="M52 0H12C5.37258 0 0 5.37258 0 12V52C0 58.6274 5.37258 64 12 64H52C58.6274 64 64 58.6274 64 52V12C64 5.37258 58.6274 0 52 0Z" fill="url(#paint0_linear_313_76)"/>
<path d="M16.5369 38H13.767L21.7784 16.1818H24.5057L32.517 38H29.7472L23.2273 19.6335H23.0568L16.5369 38ZM17.5597 29.4773H28.7244V31.821H17.5597V29.4773ZM40.3899 38.3835C39.353 38.3835 38.4119 38.1882 37.5668 37.7976C36.7216 37.3999 36.0504 36.8281 35.5533 36.0824C35.0561 35.3295 34.8075 34.4205 34.8075 33.3551C34.8075 32.4176 34.9922 31.6577 35.3615 31.0753C35.7308 30.4858 36.2244 30.0241 36.8423 29.6903C37.4602 29.3565 38.142 29.108 38.8878 28.9446C39.6406 28.7741 40.397 28.6392 41.157 28.5398C42.1513 28.4119 42.9574 28.3161 43.5753 28.2521C44.2003 28.1811 44.6548 28.0639 44.9389 27.9006C45.2301 27.7372 45.3757 27.4531 45.3757 27.0483V26.9631C45.3757 25.9119 45.0881 25.0952 44.5128 24.5128C43.9446 23.9304 43.0817 23.6392 41.924 23.6392C40.7237 23.6392 39.7827 23.902 39.1009 24.4276C38.419 24.9531 37.9396 25.5142 37.6626 26.1108L35.2763 25.2585C35.7024 24.2642 36.2706 23.4901 36.9808 22.9361C37.6982 22.375 38.4794 21.9844 39.3246 21.7642C40.1768 21.5369 41.0149 21.4233 41.8388 21.4233C42.3643 21.4233 42.968 21.4872 43.6499 21.6151C44.3388 21.7358 45.0028 21.9879 45.642 22.3714C46.2884 22.755 46.8246 23.3338 47.2507 24.108C47.6768 24.8821 47.8899 25.919 47.8899 27.2188V38H45.3757V35.7841H45.2479C45.0774 36.1392 44.7933 36.5192 44.3956 36.924C43.9979 37.3288 43.4688 37.6733 42.8082 37.9574C42.1477 38.2415 41.3416 38.3835 40.3899 38.3835ZM40.7734 36.125C41.7678 36.125 42.6058 35.9297 43.2876 35.5391C43.9766 35.1484 44.495 34.6442 44.843 34.0263C45.1982 33.4084 45.3757 32.7585 45.3757 32.0767V29.7756C45.2692 29.9034 45.0348 30.0206 44.6726 30.1271C44.3175 30.2266 43.9055 30.3153 43.4368 30.3935C42.9751 30.4645 42.5241 30.5284 42.0838 30.5852C41.6506 30.6349 41.299 30.6776 41.0291 30.7131C40.3757 30.7983 39.7649 30.9368 39.1967 31.1286C38.6357 31.3132 38.1811 31.5937 37.8331 31.9702C37.4922 32.3395 37.3217 32.8437 37.3217 33.483C37.3217 34.3565 37.6449 35.017 38.2912 35.4645C38.9446 35.9048 39.772 36.125 40.7734 36.125Z" fill="white"/>
<path opacity="0.3" d="M53 50H11C10.4477 50 10 50.4477 10 51C10 51.5523 10.4477 52 11 52H53C53.5523 52 54 51.5523 54 51C54 50.4477 53.5523 50 53 50Z" fill="white"/>
<path d="M22 55C24.2091 55 26 53.2091 26 51C26 48.7909 24.2091 47 22 47C19.7909 47 18 48.7909 18 51C18 53.2091 19.7909 55 22 55Z" fill="white"/>
<path d="M22 53C23.1046 53 24 52.1046 24 51C24 49.8954 23.1046 49 22 49C20.8954 49 20 49.8954 20 51C20 52.1046 20.8954 53 22 53Z" fill="#3949AB"/>
</g>
<defs>
<linearGradient id="paint0_linear_313_76" x1="0" y1="0" x2="4096" y2="4096" gradientUnits="userSpaceOnUse">
<stop stop-color="#5C6BC0"/>
<stop offset="1" stop-color="#3949AB"/>
</linearGradient>
<clipPath id="clip0_313_76">
<rect width="64" height="64" fill="white"/>
</clipPath>
</defs>
</svg>
