<svg xmlns="http://www.w3.org/2000/svg" width="900" height="240" fill="none" style="color-scheme:light dark" viewBox="0 0 900 240"><g transform="translate(0 30)scale(2.8125)"><g clip-path="url(#a)"><path fill="url(#b)" d="M52 0H12C5.373 0 0 5.373 0 12v40c0 6.627 5.373 12 12 12h40c6.627 0 12-5.373 12-12V12c0-6.627-5.373-12-12-12"/><path fill="#fff" d="M16.537 38h-2.77l8.011-21.818h2.728L32.517 38h-2.77l-6.52-18.366h-.17zm1.023-8.523h11.164v2.344H17.56zm22.83 8.906q-1.556 0-2.823-.585a4.84 4.84 0 0 1-2.014-1.716q-.745-1.129-.745-2.727 0-1.405.553-2.28a3.9 3.9 0 0 1 1.481-1.385 7.8 7.8 0 0 1 2.046-.745q1.13-.256 2.269-.405 1.491-.192 2.418-.288.938-.106 1.364-.351.437-.246.437-.853v-.085q0-1.577-.863-2.45-.852-.874-2.589-.874-1.8 0-2.823.789-1.023.787-1.438 1.683l-2.387-.852q.64-1.492 1.705-2.323a6.4 6.4 0 0 1 2.344-1.172 9.7 9.7 0 0 1 2.514-.34q.788 0 1.81.191 1.035.18 1.993.756.97.576 1.609 1.737t.639 3.11V38h-2.514v-2.216h-.128q-.256.532-.852 1.14-.597.608-1.588 1.033-.99.427-2.418.426m.383-2.258q1.492 0 2.515-.586 1.033-.586 1.555-1.513a3.85 3.85 0 0 0 .533-1.95v-2.3q-.16.191-.703.351-.532.15-1.236.267-.693.105-1.353.191-.65.075-1.055.128a9.6 9.6 0 0 0-1.832.416q-.842.276-1.364.841-.51.555-.511 1.513 0 1.31.97 1.982.98.66 2.481.66"/><path fill="#fff" d="M53 50H11a1 1 0 1 0 0 2h42a1 1 0 1 0 0-2" opacity=".3"/><path fill="#fff" d="M22 55a4 4 0 1 0 0-8 4 4 0 0 0 0 8"/><path fill="#3949AB" d="M22 53a2 2 0 1 0 0-4 2 2 0 0 0 0 4"/></g><defs><linearGradient id="b" x1="0" x2="4096" y1="0" y2="4096" gradientUnits="userSpaceOnUse"><stop stop-color="#5C6BC0"/><stop offset="1" stop-color="#3949AB"/></linearGradient><clipPath id="a"><path fill="#fff" d="M0 0h64v64H0z"/></clipPath></defs></g><text x="216" y="150" fill="#E6EDF7" font-size="86" font-weight="700" letter-spacing="-.02em" style="font-family:&quot;Space Grotesk&quot;,&quot;Sora&quot;,&quot;IBM Plex Sans&quot;,sans-serif">vf-web-kit</text></svg>