<svg xmlns="http://www.w3.org/2000/svg" width="1280" height="640" fill="none" style="color-scheme:light dark" viewBox="0 0 1280 640"><style>text{font-family:&quot;Space Grotesk&quot;,&quot;Sora&quot;,&quot;IBM Plex Sans&quot;,sans-serif}</style><defs><linearGradient id="edge" x1="0" x2="1" y1="0" y2="1"><stop offset="0" stop-color="#A855F7" stop-opacity=".18"/><stop offset="1" stop-color="#A855F7" stop-opacity="0"/></linearGradient></defs><path fill="#0B0D12" d="M0 0h1280v640H0z"/><path fill="url(#edge)" d="M0 0h1280v640H0z"/><path stroke="#1F2A37" d="M80 0v640M160 0v640M240 0v640M320 0v640M400 0v640M480 0v640M560 0v640M640 0v640M720 0v640M800 0v640M880 0v640M960 0v640m80-640v640m80-640v640m80-640v640M0 80h1280M0 160h1280M0 240h1280M0 320h1280M0 400h1280M0 480h1280M0 560h1280" opacity=".22"/><g transform="translate(140 200)scale(3.75)"><g clip-path="url(#clip0_313_76)"><path fill="url(#paint0_linear_313_76)" d="M52 0H12C5.373 0 0 5.373 0 12v40c0 6.627 5.373 12 12 12h40c6.627 0 12-5.373 12-12V12c0-6.627-5.373-12-12-12"/><path fill="#fff" d="M16.537 38h-2.77l8.011-21.818h2.728L32.517 38h-2.77l-6.52-18.366h-.17zm1.023-8.523h11.164v2.344H17.56zm22.83 8.906q-1.556 0-2.823-.585a4.84 4.84 0 0 1-2.014-1.716q-.745-1.129-.745-2.727 0-1.405.553-2.28a3.9 3.9 0 0 1 1.481-1.385 7.8 7.8 0 0 1 2.046-.745q1.13-.256 2.269-.405 1.491-.192 2.418-.288.938-.106 1.364-.351.437-.246.437-.853v-.085q0-1.577-.863-2.45-.852-.874-2.589-.874-1.8 0-2.823.789-1.023.787-1.438 1.683l-2.387-.852q.64-1.492 1.705-2.323a6.4 6.4 0 0 1 2.344-1.172 9.7 9.7 0 0 1 2.514-.34q.788 0 1.81.191 1.035.18 1.993.756.97.576 1.609 1.737t.639 3.11V38h-2.514v-2.216h-.128q-.256.532-.852 1.14-.597.608-1.588 1.033-.99.427-2.418.426m.383-2.258q1.492 0 2.515-.586 1.033-.586 1.555-1.513a3.85 3.85 0 0 0 .533-1.95v-2.3q-.16.191-.703.351-.532.15-1.236.267-.693.105-1.353.191-.65.075-1.055.128a9.6 9.6 0 0 0-1.832.416q-.842.276-1.364.841-.51.555-.511 1.513 0 1.31.97 1.982.98.66 2.481.66"/><path fill="#fff" d="M53 50H11a1 1 0 1 0 0 2h42a1 1 0 1 0 0-2" opacity=".3"/><path fill="#fff" d="M22 55a4 4 0 1 0 0-8 4 4 0 0 0 0 8"/><path fill="#3949AB" d="M22 53a2 2 0 1 0 0-4 2 2 0 0 0 0 4"/></g><defs><linearGradient id="paint0_linear_313_76" x1="0" x2="4096" y1="0" y2="4096" gradientUnits="userSpaceOnUse"><stop stop-color="#5C6BC0"/><stop offset="1" stop-color="#3949AB"/></linearGradient><clipPath id="clip0_313_76"><path fill="#fff" d="M0 0h64v64H0z"/></clipPath></defs></g><text x="520" y="270" fill="#E6EDF7" font-size="60" font-weight="700" letter-spacing="-.02em">vf-web-kit</text><text x="520" y="355" fill="#9AA8BD" font-size="26">Subset glyphs, clamp axes, and ship</text><text x="520" y="387" fill="#9AA8BD" font-size="26">production-ready kits.</text><g transform="translate(520 420)"><rect width="159" height="40" fill="#111827" stroke="#263142" rx="20"/><text x="18" y="20" fill="#E6EDF7" dominant-baseline="middle" font-size="22">Subsetting</text></g><g transform="translate(693 420)"><rect width="159" height="40" fill="#111827" stroke="#263142" rx="20"/><text x="18" y="20" fill="#E6EDF7" dominant-baseline="middle" font-size="22">Axis clamp</text></g><rect width="200" height="12" x="980" y="460" fill="#A855F7" fill-opacity=".25" rx="6"/><rect width="160" height="12" x="980" y="488" fill="#A855F7" fill-opacity=".35" rx="6"/></svg>